<?xml version="1.0" encoding="UTF-8" standalone="no"?>
<svg
   xmlns:dc="http://purl.org/dc/elements/1.1/"
   xmlns:cc="http://creativecommons.org/ns#"
   xmlns:rdf="http://www.w3.org/1999/02/22-rdf-syntax-ns#"
   xmlns:svg="http://www.w3.org/2000/svg"
   xmlns="http://www.w3.org/2000/svg"
   viewBox="0 0 298.66666 385.33334"
   height="385.33334"
   width="298.66666"
   xml:space="preserve"
   id="svg2"
   version="1.1"><metadata
     id="metadata8"><rdf:RDF><cc:Work
         rdf:about=""><dc:format>image/svg+xml</dc:format><dc:type
           rdf:resource="http://purl.org/dc/dcmitype/StillImage" /></cc:Work></rdf:RDF></metadata><defs
     id="defs6"><clipPath
       id="clipPath20"
       clipPathUnits="userSpaceOnUse"><path
         id="path18"
         d="M 0,0 H 2240 V 2890 H 0 Z" /></clipPath><clipPath
       id="clipPath26"
       clipPathUnits="userSpaceOnUse"><path
         style="clip-rule:evenodd"
         id="path24"
         d="M 0,3106.65 H 2445 V -213.8 H 0 Z M -4.66016,2878.19 1115.34,-1.8125 l 4.66,-11.9844 4.66,11.9844 1120,2880.0025 -9.66,1.81 V 760 h 5 v 5 h -0.02 -4.96 l -0.04,-4.953 C 2231.07,342.883 1733.4,5 1120,5 506.602,5 8.93359,342.883 5.02344,760.047 L 5,2880 Z m 9.32032,3.62 L -5,2906.65 V 2880 L -4.97656,760 C -1.00781,336.332 501.738,-5 1120,-5 c 618.26,0 1121.01,341.332 1124.98,764.953 l -5,0.047 v -5 h 0.02 5 v 5 2120 26.65 l -9.66,-24.84 -1120,-2879.9975 h 9.32 z" /></clipPath><clipPath
       id="clipPath32"
       clipPathUnits="userSpaceOnUse"><path
         style="clip-rule:evenodd"
         id="path30"
         d="M 0,2880 1120,0 2240,2880 V 760 h -0.02 C 2236.04,339.805 1736.12,0 1120,0 503.883,0 3.96094,339.805 0.0234375,760 Z" /></clipPath><clipPath
       id="clipPath38"
       clipPathUnits="userSpaceOnUse"><path
         id="path36"
         d="M 0,0 H 2240 V 2890 H 0 Z" /></clipPath><clipPath
       id="clipPath48"
       clipPathUnits="userSpaceOnUse"><path
         style="clip-rule:evenodd"
         id="path46"
         d="M 0,2880 1120,0 2240,2880 V 760 h -0.02 C 2236.04,339.805 1736.12,0 1120,0 503.883,0 3.96094,339.805 0.0234375,760 Z" /></clipPath><clipPath
       id="clipPath54"
       clipPathUnits="userSpaceOnUse"><path
         id="path52"
         d="M 0,0 H 2240 V 2890 H 0 Z" /></clipPath><clipPath
       id="clipPath64"
       clipPathUnits="userSpaceOnUse"><path
         style="clip-rule:evenodd"
         id="path62"
         d="M 583.332,2880 1120,1500 1656.67,2880 h 517.22 L 1120,170 66.1094,2880 Z" /></clipPath><clipPath
       id="clipPath70"
       clipPathUnits="userSpaceOnUse"><path
         id="path68"
         d="M 0,0 H 2240 V 2890 H 0 Z" /></clipPath></defs><g
     transform="matrix(1.3333333,0,0,-1.3333333,0,385.33333)"
     id="g10"><g
       transform="scale(0.1)"
       id="g12"><g
         id="g14"><g
           clip-path="url(#clipPath20)"
           id="g16"><g
             clip-path="url(#clipPath26)"
             id="g22"><g
               clip-path="url(#clipPath32)"
               id="g28"><g
                 clip-path="url(#clipPath38)"
                 id="g34"><path
                   id="path40"
                   style="fill:#498fe4;fill-opacity:1;fill-rule:nonzero;stroke:none"
                   d="M 0,2880 1120,0 2240,2880 V 760 h -0.02 C 2236.04,339.805 1736.12,0 1120,0 503.883,0 3.96094,339.805 0.0234375,760 L 0,2880" /></g></g></g></g></g><g
         id="g42"><g
           clip-path="url(#clipPath48)"
           id="g44"><g
             clip-path="url(#clipPath54)"
             id="g50"><path
               id="path56"
               style="fill:none;stroke:#498fe4;stroke-width:20;stroke-linecap:butt;stroke-linejoin:miter;stroke-miterlimit:10;stroke-dasharray:none;stroke-opacity:1"
               d="M 0,2880 1120,0 2240,2880 V 760 h -0.02 C 2236.04,339.805 1736.12,0 1120,0 503.883,0 3.96094,339.805 0.0234375,760 Z" /></g></g></g><g
         id="g58"><g
           clip-path="url(#clipPath64)"
           id="g60"><g
             clip-path="url(#clipPath70)"
             id="g66"><path
               id="path72"
               style="fill:#7fd40a;fill-opacity:1;fill-rule:nonzero;stroke:none"
               d="m 16.1094,120 h 2207.78 V 2930 H 16.1094 Z" /></g></g></g><path
         id="path74"
         style="fill:none;stroke:#7fd40a;stroke-width:10;stroke-linecap:butt;stroke-linejoin:miter;stroke-miterlimit:10;stroke-dasharray:none;stroke-opacity:1"
         d="M 583.332,2880 1120,1500 1656.67,2880 h 517.22 L 1120,170 66.1094,2880 Z" /></g></g></svg>